<?xml version="1.0" encoding="UTF-8"?>
<svg id="Layer_2" data-name="Layer 2" xmlns="http://www.w3.org/2000/svg" viewBox="0 0 183.12 183.12">
  <defs>
    <style>
      .cls-1 {
        fill: #a6be47;
      }
    </style>
  </defs>
  <g id="Layer_1-2" data-name="Layer 1">
    <g>
      <path class="cls-1" d="M91.56,0C40.99,0,0,40.99,0,91.56s40.99,91.56,91.56,91.56,91.56-40.99,91.56-91.56S142.13,0,91.56,0ZM54.11,94.2c-.97,2.98-3.12,5.29-5.47,7.69-1.45,1.45-2.99,2.98-4.86,3.84-2.4,1.33-5.79-.11-7.2,2.42-.95,1.67-1.2,3.76-2.42,5.46-1.73,2.38-4.17,2.93-4.53-.68-.28-1.96.04-4.68-.48-6.37-.51-2.22-2.7-2.32-4.21-3.4-1.15-1.08-.32-2.54.65-3.72,1.06-1.28,2.36-2.43,3.24-3.85,1.45-2.28,1.51-5.2.79-7.88-.63-2.56-2.67-4.51-3.58-6.92-.86-1.92.09-4.8,1.73-5.73.48-.29,1.07-.39,1.6-.17l.04.02c1.94,1,2.78,3.65,5,4.84,1.77,1.03,3.89.78,5.76.04,3.46-1.5,6.7-1.96,9.83.6,3.91,3.17,5.66,8.98,4.12,13.8ZM77.85,92.02c-.82,1.92-2.19,1.2-2.62-.45-.66-2.15.34-4.68-.78-6.53l-.03-.05c-1.41-1.9-4.51-2.38-6.9-2.11-2.13.21-3.39,2.09-3.64,4.09-.45,2.94-.33,6.43,1.41,8.87.99,1.63,3.21,3.01,2.7,5.11-.58,1.96-3.39,3.17-5.49,3-2.47-.17-6.07-1.42-6.22-4.3.02-1.84,1.22-3.61,1.61-6.12.38-2.45.24-5.2-.82-7.44-.89-2.26-3.92-3.95-2.58-6.52.93-1.69,3.55-2.48,5.52-2.04,1.35.22,2.66.75,4.02.95.5.08,1.01.11,1.52.09,2.24-.05,4.67-1.32,7-1.61,2.22-.29,4.51.22,6.6.95,6.27,2.28,3.39,4.86.72,9.05-.96,1.54-1.33,3.45-2.02,5.07ZM110.77,88.96c-.97,2.98-3.12,5.29-5.47,7.69-1.45,1.45-2.99,2.98-4.86,3.84-2.4,1.33-5.79-.11-7.2,2.42-.95,1.67-1.2,3.76-2.42,5.46-1.73,2.38-4.17,2.93-4.53-.68-.28-1.96.04-4.68-.48-6.37-.51-2.22-2.7-2.32-4.21-3.4-1.15-1.08-.32-2.54.65-3.72,1.06-1.28,2.36-2.43,3.24-3.85,1.45-2.28,1.51-5.2.79-7.88-.63-2.56-2.67-4.51-3.58-6.92-.86-1.92.09-4.8,1.73-5.73.48-.29,1.07-.39,1.6-.17l.04.02c1.94,1,2.78,3.65,5,4.84,1.77,1.03,3.89.78,5.76.04,3.46-1.5,6.7-1.96,9.83.6,3.91,3.17,5.66,8.98,4.12,13.8ZM135.5,103.97c-1.05,1.14-2.94,2.77-4.44,1.79-1.38-1.6-.53-3.7-.12-6.46.69-3.94.68-8.45-.2-12.24-1.14-4.66-8.14-5.86-10.2-1.43-.55,1.21-.79,2.6-.76,3.94.04,3.06,2.02,5.31,2.12,8.14-.16,4.17-7.15,3.41-8.56.45-1.03-1.9-.28-4.32.17-6.45.23-1.09.4-2.2.5-3.32.28-3.04.08-6.19-.79-9.14-.57-1.99-1.54-3.93-1.75-5.4-.5-3.31,3.46-4.48,5.98-5.38,2.17-.72,5.18-1.48,6.94-.05.78.61,1.06,1.53-.02,2.06-.85.49-2.25.75-3.08,1.53-1.36,1.17-1.59,3.73.06,4.75l.05.03c1.03.65,2.64.62,4.45.43,3.72-.45,8.17-.23,10.95,2.58,2.36,2.86.52,6.04.51,9.86-.03.7-.03,1.41-.03,2.12-.02,4.41,1.28,8.61-1.76,12.2ZM153.19,100.66c.13,3.04,2.22,5.25,5.54,5.34,1.58.11,3.73-.16,5.14.03,2.04.2,1.59,2.24.79,3.5-.72,1.17-1.82,2.17-3.08,2.75-3.01,1.35-6.26.28-9.53-.32-2.28-.64-6.45-1-6.58-3.97-.04-1.52,1.12-3.41,1.48-5.97.21-1.46.2-2.93.2-4.42-.06-1.94.2-4.17-.77-5.77-1.36-2.05-4.88-1.34-6.49-2.47l-.03-.02c-1.47-1.26,4.25-3.79,6.06-5.6,1.08-.91,2.07-1.99,3.02-3.01,1.06-1.07,2.83-3.3,3.95-1.3,1.11,2.44,1.23,4.94,4.56,5.23,2.25.47,8.36-.9,8.59,2.31-.1,1.92-3.33,2.99-5.31,3.12-2.23.29-4.92,0-6.49,1.86-1.41,1.95-1.15,6.11-1.05,8.72Z"/>
      <path class="cls-1" d="M94.91,79.52l-.06.02c-3,.81-3.09,4.65-3.09,7.37.03,1.99,0,4.16,1.17,5.79,1.67,2.15,5.35,2.87,7.86,2.35,3.46-.79,4.85-4.91,4.09-8.08-.91-4.25-5.51-8.39-9.95-7.45Z"/>
      <path class="cls-1" d="M38.24,84.75l-.06.02c-3,.81-3.09,4.65-3.09,7.37.03,1.99,0,4.16,1.17,5.79,1.67,2.15,5.35,2.87,7.86,2.35,3.46-.79,4.85-4.91,4.09-8.08-.91-4.25-5.51-8.39-9.95-7.45Z"/>
    </g>
  </g>
</svg>